<svg xmlns="http://www.w3.org/2000/svg" width="16" height="16" fill="none" viewBox="0 0 16 16"><path fill="#2d3440" fill-rule="evenodd" d="M1.1667 1.25a.6667.6667 0 0 0 0 1.3333h1.7712l.4675 2.3354a.7.7 0 0 0 .0106.0531l.9674 4.8333.0001.0006a1.8254 1.8254 0 0 0 1.8183 1.4691h5.6207a1.8256 1.8256 0 0 0 1.8185-1.4697l.001-.005.9271-4.8614a.667.667 0 0 0-.6549-.7915H4.6107l-.4726-2.3614a.667.667 0 0 0-.6537-.5358zM5.691 9.5444l-.8134-4.0639h8.2308l-.7756 4.0669a.492.492 0 0 1-.4918.3942v-.0001H6.1962v-.0001l-.0128.0002a.492.492 0 0 1-.4922-.3962zm-1.1336 3.961c0-.6879.5577-1.2457 1.2457-1.2457s1.2457.5578 1.2457 1.2457-.5577 1.2457-1.2457 1.2457-1.2457-.5577-1.2457-1.2457m6.3733 0c0-.6879.5577-1.2457 1.2457-1.2457s1.2457.5578 1.2457 1.2457-.5577 1.2457-1.2457 1.2457-1.2457-.5577-1.2457-1.2457" clip-rule="evenodd"/></svg>