<svg xmlns="http://www.w3.org/2000/svg" width="24" height="24" fill="none" viewBox="0 0 24 24"><g clip-path="url(#a)"><path fill="#2d3440" d="M20.0618 7.715a9.07 9.07 0 0 0 .9129-3.549 9.04 9.04 0 0 0-.5696-3.6157.754.754 0 0 0-.2526-.3589.795.795 0 0 0-.4151-.165.803.803 0 0 0-.4404.0836.77.77 0 0 0-.32.3044c-.9912 1.7138-3.1217 4.477-4.6826 4.6054h-.0702a13 13 0 0 0-2.1774-.2265 13.06 13.06 0 0 0-2.1852.2265H9.807C8.2462 4.899 6.0844 2.1358 5.0855.422A.766.766 0 0 0 4.767.0965a.802.802 0 0 0-.881.0779.753.753 0 0 0-.2521.3758 9 9 0 0 0-.5912 3.6082 9.03 9.03 0 0 0 .8955 3.549C2.5803 7.8736.8556 8.2964.2312 9.361A1.61 1.61 0 0 0 0 10.1914c0 .2917.0798.5782.2312.8305.1788.3084.4449.5611.767.7283a1.974 1.974 0 0 0 1.0514.2154 5.68 5.68 0 0 0 1.8886-.3624 6.34 6.34 0 0 0 .1015 1.2155 25.8 25.8 0 0 0 1.3657 3.9259c.1483.3549.3122.755.398.9966a10.96 10.96 0 0 0-.6009 1.8724c-.037.4521.0213.9067.1716 1.3364.1503.4296.3893.8251.7025 1.1625C7.2082 23.3658 9.1983 24 12.0234 24s4.823-.6342 5.9468-1.8875a3.29 3.29 0 0 0 .7052-1.1617 3.21 3.21 0 0 0 .1689-1.3372 10.93 10.93 0 0 0-.5931-1.8724c.0858-.2416.2497-.6342.3902-.9966a24.46 24.46 0 0 0 1.3657-3.9259 5.84 5.84 0 0 0 .1093-1.2155 5.67 5.67 0 0 0 1.8262.3624 1.99 1.99 0 0 0 1.0545-.2158c.3233-.167.5909-.4195.7717-.7279A1.613 1.613 0 0 0 24 10.1914c0-.2917-.0798-.5782-.2312-.8305-.6166-1.0268-2.3413-1.4797-3.707-1.6458m-.7414-5.013c.2814 1.5788.0066 3.2033-.7805 4.613a8.3 8.3 0 0 0-.6243-.657 5.62 5.62 0 0 0-1.4906-.9512c1.1256-.8447 2.1033-1.8593 2.8954-3.0048m-14.6017 0c.7842 1.1535 1.7598 2.1738 2.8875 3.02a5.11 5.11 0 0 0-1.475.9512 8 8 0 0 0-.6321.6568c-.7894-1.4143-1.0643-3.0443-.7804-4.628M1.6438 10.297c-.0702-.1208-.0468-.1585 0-.1887.1795-.2945 1.0848-.755 2.8173-.9287a9.6 9.6 0 0 0-.2341.6644c-1.0146.5058-2.3725.8229-2.5832.453m16.8259 2.2649a25 25 0 0 1-1.2643 3.6315 14.7 14.7 0 0 0-.5385 1.4118l-.0468.2341.0858.2114c.2469.5756.4478 1.1688.601 1.7742a1.75 1.75 0 0 1-.1194.6983 1.8 1.8 0 0 1-.3879.6002c-.5619.6267-1.8418 1.3665-4.7684 1.3665s-4.2065-.7549-4.7684-1.3665c-.337-.3527-.5188-.8184-.5072-1.2985a12.1 12.1 0 0 1 .6087-1.7742l.0858-.2114-.0546-.2341a12 12 0 0 0-.5307-1.4194 24.3 24.3 0 0 1-1.2799-3.6541 5.25 5.25 0 0 1 .2124-2.599c.2883-.8368.7834-1.5929 1.4421-2.2026 1.1785-1.1476 3.8475-1.4043 4.7762-1.4119s3.5431.2567 4.7918 1.427c.6628.604 1.1613 1.3567 1.4512 2.1917s.3625 1.7263.2111 2.5948zm3.9021-2.2649c-.2029.3624-1.5608.0528-2.5286-.4454-.0624-.2265-.1404-.4455-.2263-.672 1.7169.1737 2.6144.6342 2.7861.9287.039.0302.0547.0679-.0156.1887z"/></g><defs><clipPath id="a"><path fill="#fff" d="M0 0h24v24H0z"/></clipPath></defs></svg>