<svg xmlns="http://www.w3.org/2000/svg" width="24" height="24" fill="none" viewBox="0 0 24 24"><path fill="#2d3440" d="M12 0a6.007 6.007 0 0 0-5.9576 5.2941H6v11.9153h12V5.2941h-.0424A6.0066 6.0066 0 0 0 12 0m4.5882 15.7976H7.4118V9.2894a1.264 1.264 0 0 0 1.087.4518c.9106 0 1.5036-.5083 1.5036-1.1506v-.6141a.6068.6068 0 0 1 .8508-.6197.608.608 0 0 1 .3305.368.61.61 0 0 1 .0257.2517v2.3223a1.32 1.32 0 0 0 .4574.9829 1.319 1.319 0 0 0 1.0391.3089 1.313 1.313 0 0 0 1.3587-.7112 1.31 1.31 0 0 0 .1378-.5241v-1.56a.9517.9517 0 0 1 .5658-.9543.953.953 0 0 1 1.2857.5652.955.955 0 0 1 .0473.389.28.28 0 0 0 0 .0636.797.797 0 0 0 .4729.6283V15.84zM10.9412 22.9412a1.0588 1.0588 0 1 0 2.1176 0v-5.0259h-2.1176z"/></svg>