<svg xmlns="http://www.w3.org/2000/svg" width="24" height="24" fill="none" viewBox="0 0 24 24"><path fill="#2d3440" d="M12.0259 1.202c.8761-.0002 1.7369.2232 2.4961.6479s1.3902 1.0357 1.8298 1.7718.6722 1.5716.6747 2.4226-.2254 1.6877-.6607 2.4262c.302.0419.586.1646.8201.3544s.4093.4392.5058.7203c.0964.281.1104.5826.0403.8709a1.583 1.583 0 0 1-.437.7615 1.657 1.657 0 0 1-.784.4246 1.69 1.69 0 0 1-.8967-.0392 1.645 1.645 0 0 1-.7415-.4913 1.574 1.574 0 0 1-.3649-.7965c-.0619.0343-.1255.0669-.1892.0996-.0884.5287-.3676 1.0097-.7877 1.3568s-.9536.5377-1.5051.5377-1.085-.1906-1.5051-.5377-.6993-.8281-.7877-1.3568c-.0637-.0327-.1273-.0653-.1892-.0996a1.574 1.574 0 0 1-.365.7973 1.646 1.646 0 0 1-.7423.4915 1.69 1.69 0 0 1-.8974.0386 1.656 1.656 0 0 1-.7841-.4258 1.584 1.584 0 0 1-.4362-.7629 1.55 1.55 0 0 1 .0423-.8716 1.595 1.595 0 0 1 .5082-.7196 1.666 1.666 0 0 1 .8218-.3522c-.435-.7382-.6628-1.5744-.6606-2.425.0023-.8505.2344-1.6855.6734-2.4215S8.773 2.2768 9.5316 1.8517c.7585-.425 1.6186-.6491 2.4943-.6498m0-1.202a6.386 6.386 0 0 0-2.825.6554c-.8753.4314-1.6335 1.0574-2.2127 1.8272-.5793.7698-.9632 1.6616-1.1205 2.6027a5.89 5.89 0 0 0 .2148 2.8134c-.5787.4482-.9571 1.096-1.0565 1.8084-.0993.7124.0881 1.4346.5233 2.0162s1.0845.9776 1.8128 1.1058 1.4794-.0215 2.097-.4179a3.58 3.58 0 0 0 1.1754.7861 3.67 3.67 0 0 0 1.3985.2768c.4805 0 .9561-.0942 1.3984-.2768a3.58 3.58 0 0 0 1.1755-.7861c.6178.3734 1.3583.5054 2.0723.3692s1.3483-.5302 1.7749-1.1027.6138-1.2809.5238-1.9823-.4504-1.3434-1.0087-1.7967a5.89 5.89 0 0 0 .2149-2.8134c-.1573-.9411-.5413-1.8329-1.1205-2.6027S15.7262 1.0868 14.8508.6554A6.385 6.385 0 0 0 12.0259 0"/><path fill="#2d3440" d="M16.1325 13.5325a3.64 3.64 0 0 1-1.4142-.2885c-.0655.0516-.1344.0979-.2033.146l.0937.0893-.6895.6697-.2952-.2868a4.5 4.5 0 0 1-.373.1236l.4172.4053-.6877.6696-.693-.6696.274-.2662a4.5 4.5 0 0 1-.5303.0344 4.2 4.2 0 0 1-.5144-.0327l.2722.2645-.6894.6696-.6895-.6696.4137-.4018a3.9 3.9 0 0 1-.3713-.1237l-.2969.2834-.6966-.6697.0867-.0842c-.0725-.0497-.1432-.0978-.2122-.1511a3.64 3.64 0 0 1-1.4142.2885h-.106a.58.58 0 0 0 .0282.2782l3.6028 9.8081a.3.3 0 0 0 .0141.0343.2.2 0 0 0 .0177.0344 1 1 0 0 0 .0407.0687l.0159.0223a.6.6 0 0 0 .0725.079l.0176.0137.069.0515.0318.0172a.6.6 0 0 0 .076.0343h.0195l.0707.0172h.0283a.57.57 0 0 0 .198 0h.03l.0689-.0172h.0301a.7.7 0 0 0 .0742-.0343l.0319-.0189a.4.4 0 0 0 .0689-.0498l.0195-.0137a.8.8 0 0 0 .0724-.079l.0142-.0223a.6.6 0 0 0 .0424-.0687l.0318-.0687 3.6099-9.8133a.56.56 0 0 0 .0283-.2781c-.0354 0-.0619.0051-.1061.0051m-2.4749 2.6839-.6895.6696-.6806-.6696.6877-.6697zm-2.3141.9117.6895-.6696.6894.6696-.6894.6697zm1.3789 1.8253-.6894.6697-.6895-.6697.6895-.6696zm-.6894-4.3185.6894.6697-.6894.6645-.6895-.6697zm-.2493 1.5815-.6894.6696-.6895-.6696.6895-.6697zm-2.6358-2.428.0672-.0653.6894.668-.3942.376zm.488 1.3445.5126-.498.6877.6697-.6806.6645-.3165-.3074zm.5002 1.3513.0195-.0189.6876.6697-.3447.3434zm.7372 2.0176-.251-.6868.4649-.4499.6894.6697-.6823.6817zm.6063 1.6519-.3305-.8964.6275.6079zm.5392 1.4698-.4083-1.1127.4154-.4035.4048.3932zm.5445-1.4801-.2758-.2782.6028-.5872zm.6081-1.6193-.1997.1924-.6842-.6766.6877-.6679.4543.4395zm.3925-1.0697-.3341-.3263.6894-.6696v.0086zm.6488-1.7669-.3006.2816-.6894-.6697.6894-.6697.4968.4929zm.3323-.9204-.3836-.3743.6894-.6697.0566.055z"/></svg>