<svg xmlns="http://www.w3.org/2000/svg" width="16" height="16" fill="none" viewBox="0 0 16 16"><path fill="#2d3440" fill-rule="evenodd" d="M8.0003 2.3333c-3.1298 0-5.667 2.5372-5.667 5.667s2.5372 5.6669 5.667 5.6669 5.6669-2.5372 5.6669-5.667-2.5372-5.6669-5.667-5.6669M1 8.0003C1 4.134 4.1341 1 8.0003 1c3.8661 0 7.0002 3.1341 7.0002 7.0003 0 3.8661-3.1341 7.0002-7.0002 7.0002S1 11.8664 1 8.0003m7-.667A.6667.6667 0 0 1 8.6668 8v2.5334a.6667.6667 0 1 1-1.3333 0V8A.6667.6667 0 0 1 8 7.3333M8 4.8a.6667.6667 0 1 0 0 1.3333h.0067a.6667.6667 0 0 0 0-1.3333z" clip-rule="evenodd"/></svg>