<svg xmlns="http://www.w3.org/2000/svg" width="24" height="24" fill="none" viewBox="0 0 24 24"><path fill="#2d3440" d="M18.9932 13.8638C18.6882 7.0573 12.7571.4658 12.4927.1791h-.0339L12.3775.086l-.0882-.0573h-.3795L11.781 0h-.0339l-.122.086-.0746.0645h-.0339c-.2644.3152-6.1955 6.914-6.514 13.7133a1.1 1.1 0 0 0 0 .1505v.7809c.2575 7.3797 6.7784 9.1852 6.8326 9.1995h.1695a.69.69 0 0 0 .1694 0c.061 0 6.5751-1.8556 6.8259-9.1995v-.7809c0-.0502-.0068-.1004-.0068-.1505M6.792 11.349c1.354 1.23 2.8848 2.2241 4.5348 2.9447v3.2599c-1.6607-.8669-4.2162-2.4073-4.9686-3.7615.061-.8268.1996-1.6452.4135-2.4431zm1.3557-3.654c.8866.9788 1.9744 1.729 3.1791 2.1923v2.823c-1.5145-.6757-2.8945-1.6481-4.067-2.866.2578-.7333.5543-1.451.888-2.1494m8.6154 2.1494c-1.1721 1.2185-2.5521 2.191-4.067 2.8659v-2.823c1.195-.4672 2.2731-1.2172 3.1519-2.1924.342.6885.6475 1.3965.9151 2.1208zm-4.067-1.476V2.6366a32.4 32.4 0 0 1 2.4741 3.7114c-.6538.8785-1.5105 1.5645-2.4877 1.9918zm0 9.1996v-3.2743c1.6563-.7142 3.194-1.7035 4.5551-2.9304.2076.801.3393 1.6218.3931 2.4503-.7456 1.3327-3.3011 2.8659-4.9618 3.7257zm-1.3557-9.1996c-.9817-.4327-1.8393-1.1292-2.4877-2.0204a32.45 32.45 0 0 1 2.4741-3.7472zm-4.8398 7.6878c1.4825 1.2313 3.1036 2.2637 4.8262 3.0737v3.1525c-1.2323-.5293-2.3197-1.3764-3.1627-2.4639s-1.415-2.3811-1.6635-3.7623m6.1819 6.2333v-3.1668c1.7241-.8041 3.3456-1.8344 4.8262-3.0665-.238 1.3865-.8059 2.6861-1.6502 3.7766s-1.9373 1.9359-3.176 2.4567"/></svg>