<svg xmlns="http://www.w3.org/2000/svg" width="16" height="16" fill="none" viewBox="0 0 16 16"><path fill="#2d3440" fill-rule="evenodd" d="M2.6634 7.33c0-2.5773 2.0893-4.6666 4.6667-4.6666s4.6666 2.0893 4.6666 4.6667c0 1.2573-.4972 2.3984-1.3057 3.2375a.68.68 0 0 0-.1234.1235c-.8391.8085-1.9803 1.3056-3.2375 1.3056-2.5773 0-4.6667-2.0893-4.6667-4.6666m8.4118 4.688a5.975 5.975 0 0 1-3.7451 1.3121c-3.3137 0-6-2.6863-6-6s2.6863-6 6-6 6 2.6863 6 6a5.975 5.975 0 0 1-1.3121 3.7451l2.4501 2.4501a.6667.6667 0 1 1-.9428.9429z" clip-rule="evenodd"/></svg>