<svg
  xmlns="http://www.w3.org/2000/svg"
  width="16" height="16"
  fill="none" viewBox="0 0 16 16">
  <path
    fill="white"
    fill-rule="evenodd"
    d="M16 8c0 4.418-3.582 8-8 8s-8-3.582-8-8 3.582-8 8-8 8 3.582 8 8M8.2867 5.906q-1.1672.4851-4.6654 2.0093-.5681.226-.5953.442c-.0307.244.2747.34.6893.47.0567.018.1154.036.1754.056.4086.1327.958.288 1.2433.294q.389.008.868-.32Q9.27 6.6505 9.376 6.6267c.05-.0114.1193-.026.166.016.0467.0413.042.12.0373.1413-.0306.1287-1.2266 1.2413-1.8466 1.8173-.1934.1794-.33.3067-.358.336a8 8 0 0 1-.188.186c-.38.3654-.664.64.016 1.088.3266.2154.588.3934.8486.5707.2847.194.5687.3873.9367.6287.0933.0613.1827.1246.27.1866.3313.2367.6293.4487.9973.4154.2134-.02.4347-.2207.5467-.82.2647-1.4174.786-4.4867.9067-5.752a1.4 1.4 0 0 0-.0134-.3147.337.337 0 0 0-.1146-.2167c-.0954-.078-.2434-.0946-.31-.0933-.3007.0053-.762.166-2.984 1.09" clip-rule="evenodd"/>
</svg>
