<svg xmlns="http://www.w3.org/2000/svg" width="24" height="24" fill="none" viewBox="0 0 24 24"><path fill="#2d3440" d="M14.3917 3.8021c0-1.0084-.3688-1.9755-1.0252-2.6885S11.8199 0 10.8917 0 9.0732.4006 8.4168 1.1136 7.3917 2.7937 7.3917 3.8021v11.0661C6.4944 15.863 5.9944 17.202 6 18.5948c-.0024.8919.199 1.7706.5862 2.5571s.948 1.4565 1.6323 1.9496c.6842.4931 1.4703.7941 2.288.8758.8176.0818 1.6411-.0582 2.3967-.4073.7556-.3492 1.4196-.8966 1.9324-1.5931.5129-.6966.8586-1.5206 1.0061-2.398a5.835 5.835 0 0 0-.1608-2.6295c-.2531-.8485-.6961-1.6156-1.2892-2.2323zm.1252 14.7927c.0071.6596-.1412 1.3102-.4308 1.89-.2895.5798-.7106 1.0697-1.2234 1.423s-1.1002.5583-1.7065.5957-1.2112-.0943-1.7575-.3823c-.5462-.2881-1.0156-.7231-1.3636-1.2636s-.5631-1.1688-.6247-1.8251c-.0617-.6562.032-1.3187.2724-1.9245.2403-.6057.6191-1.1348 1.1005-1.5368V3.8021c0-.6074.2222-1.19.6176-1.6195s.9316-.6708 1.4908-.6708 1.0954.2413 1.4908.6708S13 3.1946 13 3.802v11.6255c.4696.3555.8529.8293 1.1171 1.3809s.4014 1.1645.3998 1.7863"/><path fill="#2d3440" d="M11.6501 16.2288V3.855c0-.2005-.0733-.3927-.2038-.5345s-.3075-.2214-.492-.2214-.3615.0797-.492.2214-.2038.334-.2038.5345v12.3738c-.4643.1783-.8556.5292-1.1047.9906-.2492.4614-.3402 1.0036-.2569 1.5309s.3354 1.0055.712 1.3503c.3764.3447.853.5339 1.3454.5339s.969-.1892 1.3455-.5339.6286-.8231.7119-1.3503-.0077-1.0695-.2569-1.5309c-.2491-.4614-.6404-.8123-1.1047-.9906M20 2.9555h-4.1749v1.5118H20zM20 5.979h-4.1749v1.5118H20zM20 9.0026h-4.1749v1.5117H20zM20 12.0261h-4.1749v1.5118H20z"/></svg>