<svg xmlns="http://www.w3.org/2000/svg" width="359" height="146" fill="none" viewBox="0 0 359 146"><path fill="#2d3440" d="M138.334 98.4375a9.04 9.04 0 0 0-5.016.8671s-7 5.8824-41.6257-.8905c-25.4558-4.9917-38.6854-4.4761-38.6854-4.4761s4.2699-29.2941 3.1033-37.4964a2.348 2.348 0 0 0-.796-1.5635 2.327 2.327 0 0 0-1.6539-.5691c-2.5433 0-4.0832.9843-4.0832 2.3435a111.5 111.5 0 0 1-.5834 16.5922c-1.0569 2.9101-3.0411 5.3883-5.6444 7.0495a13.95 13.95 0 0 1-8.7517 2.1371c-11.083-.7734-13.4162-8.7882-14.3962-14.2486s-1.54-20.7168 1.3766-26.9505c0 0 16.7061.5858 27.2057-8.4133s9.8464-16.7796 4.8766-20.1074c-4.9699-3.3278-16.6128-2.7419-25.5492 5.4604-5.1309 4.5016-9.1827 10.1095-11.8529 16.4047 0 0-13.1362-2.8123-10.1263-16.5922C9.3284 3.5952 28.9044 5.2826 28.9044 5.2826c4.0832.7968 4.2699 1.1717 5.6232-.1875S36.8608.2206 30.4444.0096C24.0279-.2013 4.7786 2.986 1.092 15.8284-2.8512 29.4911 4.4286 39.2636 14.205 40.7869c0 0-5.3431 23.6696 1.26 35.3872 1.8304 3.7029 4.7151 6.7759 8.2879 8.8289a20.692 20.692 0 0 0 11.7781 2.7012c3.8498 0 10.6629-2.1561 12.5995-5.2729 0 0-.9099 8.3898-1.6799 11.4363 0 0-16.1928-.2109-21.256 2.3436-8.6097 4.5698-6.8131 15.2798-3.4998 19.0758 2.7999 3.234 11.2229 4.992 17.3127 2.11 3.4855-1.685 6.4961-4.219 8.7578-7.37a23.36 23.36 0 0 0 4.1918-10.6755 92.16 92.16 0 0 1 29.2356 3.1875c14.3962 4.312 34.4384 8.343 40.4584 8.343s18.666-1.735 19.436-6.773c.42-3.328-.816-5.0622-2.753-5.6715M37.0008 20.117s7.6531-5.8588 11.3163-2.2029a5.05 5.05 0 0 1 1.3353 3.265 5.054 5.054 0 0 1-1.1253 3.3438c-1.54 2.0154-5.5998 8.3898-24.8725 11.5535 0 0 6.0665-10.6864 13.3462-15.9594m.63 91.186s-10.5696 5.789-11.6663-2.062a7.414 7.414 0 0 1 .4217-4.911c.6966-1.54 1.8986-2.793 3.4049-3.549 1.8432-.9139 4.3631-2.0623 15.3528-1.6639a14.86 14.86 0 0 1-2.1911 7.0669c-1.314 2.131-3.1452 3.893-5.322 5.119"/><path fill="#2d3440" d="M171.676 55.6214v16.1468a13.21 13.21 0 0 1-2.006 5.9291 13.07 13.07 0 0 1-2.754 3.445c-1.236 1.078-2.053-1.3358-2.52-2.3435-3.243-6.8196-1.679-15.9594-.419-23.1071.583-3.4216-6.324-2.531-6.86.5156a69.23 69.23 0 0 0-1.284 18.5372 4.345 4.345 0 0 0-1.744.5205 4.37 4.37 0 0 0-1.382 1.1903c-1.19 2.5544-4.667 11.038-8.936 7.6399-3.08-2.3436-3.407-8.7648-3.734-12.3504a36.46 36.46 0 0 1 1.914-14.6704c-.14.3984 2.659-6.6322 3.896-4.0075a8.54 8.54 0 0 1 .133 3.833 8.52 8.52 0 0 1-1.556 3.5023c-3.663 2.7653 2.03 3.9136 4.246 2.2263 4.2-3.1637 7-13.3815-.163-14.6001-8.096-1.3593-12.693 6.8431-14.396 13.358a42.66 42.66 0 0 0-1.167 11.4364c-1.12 1.9686-4.9 8.2961-7.116 9.3741-2.613 1.3592-2.567-.539-2.473-1.7576.093-1.2187 1.26-12.0692 1.889-19.381a13.57 13.57 0 0 0-1.166-8.5538c-1.003-2.0389-9.333-6.6087-16.66 1.9686-4.127 4.525-6.653 10.2912-7.186 16.4046-.49.9843-1.0266 2.0389-1.6566 3.1872-3.4999 6.4447-7.9097 9.1632-9.473 4.687a35.86 35.86 0 0 1-1.75-14.5064c5.4369-8.4532 9.4274-17.7604 11.8063-27.5363 3.5003-15.6079 2.8463-23.3649.9563-24.6773-1.8896-1.3124-9.916-4.5464-14.7458 14.647a125.6 125.6 0 0 0-3.7099 41.9022c-.7466 1.5935-1.6799 3.5152-2.8699 5.6947-3.4999 6.4447-7.8864 9.1632-9.473 4.687a35.86 35.86 0 0 1-1.6566-14.5063c5.4368-8.4533 9.4273-17.7605 11.8062-27.5364 3.6166-15.8188 2.8933-23.5758 1.0033-24.8882s-9.9163-4.5464-14.7228 14.647S59.9834 66.8 64.5799 80.8611c0 0 2.5199 7.9211 7.2331 7.3352 3.8965-.4921 8.5397-4.3355 11.2696-11.5067a41.7 41.7 0 0 0 1.1433 4.1715s2.5199 7.9211 7.2331 7.3352c3.1965-.3984 6.9997-3.0934 9.66-8.0148 1.656 4.2886 5.226 7.8273 9.823 7.0305 6.229-1.1248 7.513-4.523 7.513-4.523s-.117 5.5776 3.873 5.5776c3.546 0 6.37-2.0857 9.17-7.4055.956-1.8045 1.516-2.8591 1.82-3.4684.816 5.0386 2.893 9.5147 6.999 11.3192 7 3.0466 13.113-2.7419 16.706-8.4601a10.11 10.11 0 0 0 2.203 3.6996 10.05 10.05 0 0 0 3.537 2.4404 8.713 8.713 0 0 0 4.714.1497 8.74 8.74 0 0 0 4.106-2.3292v8.2492a5.98 5.98 0 0 0-3.617.9843c-3.572 2.9438-6.342 6.7492-8.052 11.0612a27.55 27.55 0 0 0-1.724 13.593 7.606 7.606 0 0 0 1.176 3.498 7.55 7.55 0 0 0 2.684 2.523c1.088.606 2.309.932 3.553.948a7.5 7.5 0 0 0 3.577-.853c7.233-3.164 8.329-14.061 8.936-20.716 1.47-16.0067.327-32.6692.327-48.7223 0-2.9528-6.767-1.5701-6.767.8437M70.5763 29.374c1.61-6.2104 3.1033-8.6945 4.6666-8.6945s2.1699 1.6639 1.0732 7.0306a137.85 137.85 0 0 1-9.543 29.8798s2.1933-21.9822 3.8032-28.2159m19.646 0c1.61-6.2104 3.1033-8.6945 4.5499-8.6945s2.1932 1.6639 1.0966 7.0306-4.6665 20.2011-9.543 29.8798c0 0 2.3333-21.9822 3.8965-28.2159m30.0057 29.2237c-.187 1.3592-1.073 10.0537-2.333 14.7407s-2.124 6.3509-5.903 7.968c-3.78 1.617-5.694-3.3278-5.694-3.3278-2.683-7.4993.91-14.0612 3.897-18.5607s5.996-4.898 7.723-4.6871c.405.1014.785.2819 1.12.5311s.618.5624.833.9215c.214.3591.356.7572.418 1.1714.061.4143.04.8366-.061 1.2429m51.262 42.1833c.14 6.3-1.119 12.553-3.687 18.303-1.633.328-2.333-.281-2.893-2.906a25.25 25.25 0 0 1 0-7.616c.763-4.637 3.046-8.8847 6.486-12.0696.117 1.4764.117 2.906.094 4.2886M215.355 48.9892a25.12 25.12 0 0 1-8.061-5.6927 25.25 25.25 0 0 1-5.262-8.3684c-2.987-8.9523 6.813-15.561 14.629-15.1626 7.817.3984 11.993 8.4836 11.667 15.725-.14 2.5545-1.75 8.3195-4.9 5.3198-2.083-2.3747-3.358-5.3547-3.64-8.5069-.467-2.8357-7.233-1.1484-6.766 1.8279 1.353 8.5773 10.546 18.0217 18.432 9.046a17.24 17.24 0 0 0 3.319-6.94 17.295 17.295 0 0 0-.022-7.6992 17.265 17.265 0 0 0-3.36-6.9201 17.16 17.16 0 0 0-6.027-4.7584 23.793 23.793 0 0 0-16.473-.3195c-5.355 1.8587-9.878 5.5684-12.762 10.4669-6.37 11.3661 6.416 22.4744 15.469 26.5287 14.536 7.8039 15.073 32.9264-4.246 33.0905-3.969-.0915-7.815-1.4-11.023-3.75-3.207-2.35-5.622-5.6291-6.92-9.3972-1.33-3.9371-.653-17.6936 4.666-18.7481 4.224-.8203 3.08-4.6871-1.049-3.9606-8.657 1.6873-11.853 12.9128-11.013 20.7636 1.353 12.5144 13.019 19.5215 24.802 19.4278 5.213.1504 10.314-1.5367 14.418-4.7685s6.953-7.8046 8.051-12.9251c.867-5.0438-.051-10.2334-2.596-14.6682-2.544-4.4348-6.554-7.835-11.333-9.6107"/><path fill="#2d3440" d="M258.707 86.2278c-6.65-3.6559-2.847-17.7405-1.844-23.154.654-3.4919 3.617-8.882-1.143-10.0772-5.576-1.3592-12.203 3.9606-16.986 9.046-.004-5.867.425-11.7262 1.283-17.5295 7.378-3.6975 13.286-9.8045 16.753-17.3186 3.033-6.0932 4.527-18.7482-5.74-15.0454-9.333 3.2809-12.529 14.0611-15.446 22.7087a70.56 70.56 0 0 0-2.543 10.2412c-.931.3924-1.881.7366-2.847 1.0311-3.873 1.2187-3.36 3.3044.56 2.0858l1.89-.6094c-1.866 13.1472-.606 26.9271.583 39.8399 0 1.2655 7 0 6.744-1.828-.514-5.765-.957-11.5301-1.144-17.2483a3.234 3.234 0 0 0 1.47-.9139 52.6 52.6 0 0 1 7.187-7.429c.7-.6327 1.423-1.2186 2.146-1.7811l1.074-.7968c1.563-1.242 1.866-1.2655.886 0a64.4 64.4 0 0 1-1.446 6.6322c-1.284 7.0306-4.97 20.8339 3.126 25.2632 1.75.8905 8.05-1.7343 5.437-3.1169m-15.143-56.5023c.723-2.0858 1.68-4.1481 2.566-6.1635 1.097-2.531 4.037-11.1786 6.16-7.0305 1.703 3.3043-.98 8.7179-2.17 11.8816-1.873 4.9464-5.111 9.2547-9.333 12.4207a87.1 87.1 0 0 1 2.777-11.1083"/><path fill="#2d3440" d="M283.789 69.7997c0-7.7102-.863-17.5999-10.033-18.4201-10.056-.914-13.999 9.6553-14.139 17.553-.015.2795.055.5568.201.7953s.36.427.615.5405c0 7.3821 1.773 17.0139 10.523 16.8499 9.753-.1406 12.833-8.6945 12.833-17.3186m-11.666 12.8425c-5.693-2.3435-5.18-12.2098-4.807-16.9671.035-.2391 0-.4832-.099-.7033a1.26 1.26 0 0 0-.461-.5388c.7-4.687 2.52-11.7176 6.673-8.2257 3.314 2.8591 3.384 9.7256 3.547 13.6861.14 2.7654-.21 14.483-4.83 12.7488zM357.287 112.1c-2.614-6.749-8.353-9.374-14.677-9.655a26.38 26.38 0 0 0-2.636-4.8746c-9.123-13.569-30.776-11.7176-45.452-4.687 0-2.1326-.21-4.2652-.303-6.3979 2.92.2369 5.851-.2855 8.511-1.5169a17.065 17.065 0 0 0 6.678-5.5136c3.897-5.601 3.337-15.5376 1.797-21.8182-1.447-5.9057-7.187-4.8511-11.503-2.8825a17.17 17.17 0 0 0-4.34 2.9528c0-1.5701.257-3.1637.373-4.687.257-3.609-6.626-2.6951-6.859.4921-1.074 14.5064-.7 28.9659-1.027 43.4489-4.141 3.4169-7.429 7.7579-9.605 12.6769a34.714 34.714 0 0 0-2.925 15.656c0 5.32 4.504 9.374 9.333 5.578 6.744-5.203 8.797-15.538 9.73-23.435a72.95 72.95 0 0 0 .373-10.6165c5.262-3.4654 11.407-5.331 17.699-5.3726 6.291-.0415 12.461 1.7427 17.767 5.1382a16.24 16.24 0 0 1 5.296 6.3279c-3.73.67-7.355 1.836-10.779 3.468-3.99 1.922-9.917 6.468-9.637 11.554a7.058 7.058 0 0 0 1.433 4.465c.973 1.279 2.353 2.185 3.911 2.565.212.108.44.18.676.211 14.326 2.344 24.989-6.163 22.936-18.139 7 3.82 9.59 12.679 7.116 20.295-5.576 17.108-27.042 20.928-39.548 9.491-1.353-1.218-7.443 1.36-6.37 2.344 18.059 16.569 63.045 1.242 52.032-27.068m-69.858-4.148a36.56 36.56 0 0 1-2.66 12.046c-.583 1.289-1.213 2.531-1.89 3.75 0 0-.607.14-.723-1.688-.01-6.565 1.888-12.991 5.46-18.49-.047 1.453-.094 2.929-.187 4.382m7.303-41.8551c.135-.1154.253-.2496.35-.3984a32.8 32.8 0 0 1 4.433-5.8822 18.37 18.37 0 0 1 4.223-3.5622c.747.375 1.517 2.3436 1.797 4.9917.723 6.515 1.027 23.6696-9.193 22.0526a5.574 5.574 0 0 0-2.333.3984c-.024-5.9526.303-11.7645.723-17.5999m30.519 55.6351h-.14c-3.92-.937-3.5-4.687-2.987-7.218 1.144-5.929 8.33-9.116 14.257-9.374 3.01 8.437.7 18.537-11.13 16.592"/></svg>