<svg xmlns="http://www.w3.org/2000/svg" width="32" height="32" fill="none" viewBox="0 0 32 32"><g clip-path="url(#a)"><circle cx="16" cy="16" r="16" fill="#e84d37"/><path fill="#fff" d="M15.967 8.502a6.7 6.7 0 0 0-3.21.81 6.26 6.26 0 0 0-2.352 2.215 5.8 5.8 0 0 0-.868 3.028 5.8 5.8 0 0 0 .85 3.033 2.2 2.2 0 0 0-1.055.443c-.3.237-.526.55-.65.9a1.9 1.9 0 0 0-.052 1.09c.09.36.285.69.562.951.277.262.627.446 1.008.53.382.086.781.069 1.153-.048a2.1 2.1 0 0 0 .953-.614c.252-.285.414-.63.47-.996q.12.064.243.124a2.8 2.8 0 0 0 1.013 1.697c.54.433 1.226.672 1.935.672s1.395-.239 1.935-.672.899-1.036 1.013-1.697q.123-.06.243-.124c.055.367.218.712.47.997.25.284.581.497.953.614.373.117.773.134 1.154.048.382-.085.731-.27 1.009-.532s.47-.593.56-.954c.09-.36.07-.738-.054-1.09a2 2 0 0 0-.654-.899 2.2 2.2 0 0 0-1.056-.44 5.8 5.8 0 0 0 .85-3.031 5.8 5.8 0 0 0-.867-3.027 6.26 6.26 0 0 0-2.35-2.215 6.7 6.7 0 0 0-3.206-.813m0-1.502c1.262 0 2.506.28 3.632.82a7.9 7.9 0 0 1 2.845 2.283 7.35 7.35 0 0 1 1.44 3.254 7.2 7.2 0 0 1-.276 3.516 3.45 3.45 0 0 1 1.359 2.26 3.34 3.34 0 0 1-.673 2.521 3.73 3.73 0 0 1-2.33 1.382 3.87 3.87 0 0 1-2.697-.522c-.429.42-.943.754-1.511.983a4.83 4.83 0 0 1-3.596 0 4.6 4.6 0 0 1-1.512-.983 3.88 3.88 0 0 1-2.664.462 3.72 3.72 0 0 1-2.282-1.379 3.35 3.35 0 0 1-.674-2.478c.116-.876.58-1.679 1.297-2.246a7.17 7.17 0 0 1-.276-3.516 7.35 7.35 0 0 1 1.44-3.254 7.9 7.9 0 0 1 2.846-2.284A8.4 8.4 0 0 1 15.967 7"/><path fill="#fff" d="M10.687 23.916a4.8 4.8 0 0 0 1.818-.36q.127.093.261.181l-.12.112.886.837.38-.358q.235.088.48.154l-.537.507.884.837.891-.837-.352-.333q.34.041.682.043.332 0 .661-.04l-.35.33.887.837.886-.837-.532-.502q.243-.066.478-.155l.381.354.896-.837-.111-.105c.093-.062.184-.122.272-.189a4.8 4.8 0 0 0 1.819.36h.136a.7.7 0 0 1-.036.348l-4.632 12.26-.019.043a.3.3 0 0 1-.022.043q-.024.045-.053.086l-.02.028a1 1 0 0 1-.093.099l-.023.017-.089.064-.04.022a1 1 0 0 1-.098.043h-.025l-.091.021h-.037a.8.8 0 0 1-.254 0h-.039l-.088-.021h-.04a1 1 0 0 1-.095-.043l-.04-.024a.5.5 0 0 1-.09-.062l-.024-.017a1 1 0 0 1-.093-.099l-.019-.028a1 1 0 0 1-.054-.086l-.041-.086-4.641-12.266a.7.7 0 0 1-.037-.348c.046 0 .08.007.137.007m3.182 3.354.886.838.875-.838-.884-.837zm2.975 1.14-.886-.837-.887.837.887.837zm-1.773 2.282.887.837.886-.837-.886-.837zm.887-5.398-.887.837.887.83.886-.837zm.32 1.976.887.838.886-.838-.886-.837zm3.389-3.035-.086-.081-.887.835.507.47zm-.627 1.681-.66-.622-.884.837.875.83.407-.384zm-.644 1.69-.025-.024-.884.837.444.429zm-.947 2.521.322-.858-.597-.563-.887.838.878.852zm-.78 2.065.425-1.12-.807.76zm-.693 1.837.525-1.39-.534-.505-.52.492zm-.7-1.85.354-.348-.775-.734zm-.782-2.024.257.24.88-.845-.885-.835-.584.55zm-.505-1.337.43-.408-.887-.837v.01zm-.834-2.209.386.352.887-.837-.887-.837-.638.616zm-.427-1.15.493-.468-.886-.837-.073.069z"/></g><defs><clipPath id="a"><rect width="32" height="32" fill="#fff" rx="16"/></clipPath></defs></svg>